<?xml version="1.0" encoding="UTF-8"?>
<svg id="Camada_2" data-name="Camada 2" xmlns="http://www.w3.org/2000/svg" viewBox="0 0 273.47 78.71">
  <defs>
    <style>
      .cls-1 {
        fill: none;
      }

      .cls-2 {
        fill: #fff;
      }

      .cls-3 {
        fill: #24b34b;
      }
    </style>
  </defs>
  <g id="LOGO">
    <g id="LOGO_INVERTIDA" data-name="LOGO INVERTIDA">
      <path class="cls-1" d="m48.64,64.16c-1.08,0-2.02.44-2.81,1.31-.79.88-1.28,1.93-1.46,3.15l-.05.33c-.2,1.31-.05,2.38.46,3.22.51.84,1.34,1.25,2.49,1.25,1.07,0,2.01-.43,2.8-1.3.79-.87,1.29-1.93,1.48-3.17l.05-.33c.19-1.29.02-2.35-.49-3.2-.51-.84-1.34-1.26-2.47-1.26Z"/>
      <path class="cls-1" d="m214.9,25.55c-1.08-.56-2.38-.97-3.99-1.14h-.23s-3.84-.17-6.71,2.39l4.84,4.84,6.09-6.09Z"/>
      <path class="cls-1" d="m190.71,64.16c-1.08,0-2.02.44-2.81,1.31-.79.88-1.28,1.93-1.46,3.15l-.05.33c-.2,1.31-.05,2.38.46,3.22.51.84,1.34,1.25,2.49,1.25,1.07,0,2.01-.43,2.8-1.3.79-.87,1.29-1.93,1.48-3.17l.05-.33c.19-1.29.03-2.35-.49-3.2-.51-.84-1.34-1.26-2.47-1.26Z"/>
      <path class="cls-1" d="m201.49,30.75c-.22.69-.4,1.44-.5,2.29-.06.52-.05,1.51,0,1.84.28,2,1.63,7.13,8.05,8.21.5.08,1.5.14,1.85.11,2.18-.16,8.01-1.29,8.89-8.87.03-.23.06-.97,0-1.48-.12-.97-.47-2.63-1.49-4.24-3.15,3.15-6.31,6.31-9.46,9.46l-7.33-7.32Z"/>
      <path class="cls-1" d="m110.26,64.18c-.78,0-1.46.2-2.03.59-.57.4-1.04.9-1.41,1.52l-.79,5.23c.19.59.53,1.06.99,1.39.47.34,1.09.51,1.86.51,1.01,0,1.86-.4,2.55-1.2.69-.8,1.13-1.85,1.33-3.14l.03-.21c.21-1.43.11-2.57-.31-3.42-.42-.85-1.16-1.27-2.23-1.27Z"/>
      <path class="cls-1" d="m166.19,64.16c-.89,0-1.69.34-2.4,1.01-.71.67-1.2,1.51-1.46,2.52l.02.06h6.25l.03-.25c.15-1,.02-1.81-.39-2.42-.41-.61-1.09-.92-2.05-.92Z"/>
      <path class="cls-1" d="m129.61,64.18c-1.02,0-1.88.44-2.57,1.32-.69.88-1.14,2.01-1.34,3.37l-.03.21c-.21,1.36-.11,2.41.31,3.17.41.76,1.15,1.14,2.22,1.14.74,0,1.4-.18,1.98-.53.58-.35,1.07-.83,1.47-1.44l.78-5.18c-.18-.61-.5-1.11-.94-1.5-.45-.39-1.07-.58-1.87-.58Z"/>
      <path class="cls-1" d="m82.79,67.75l.03-.25c.15-1,.02-1.81-.39-2.42-.41-.61-1.09-.92-2.05-.92-.89,0-1.69.34-2.4,1.01-.71.67-1.2,1.51-1.46,2.52l.02.06h6.25Z"/>
      <path class="cls-1" d="m116.75,69.64c-.73.47-1.14,1.03-1.24,1.68-.09.64.03,1.14.38,1.51.35.37.88.55,1.61.55.89,0,1.71-.22,2.47-.66.76-.44,1.31-1,1.66-1.68l.32-2.1h-2.69c-.94,0-1.77.24-2.5.71Z"/>
      <path class="cls-1" d="m224.05,60.34c-.34-.12-.57-.24-.69-.35-.12-.11-.19-.27-.2-.48-.01-.22.03-.39.14-.53.1-.13.28-.21.53-.22.23-.01.42.05.56.2.14.15.22.36.23.65l1.12-.06v-.02c-.01-.49-.16-.87-.45-1.16-.28-.29-.66-.45-1.14-.49l-.05-.86-.63.03.05.84c-.49.08-.87.26-1.14.56-.27.3-.39.67-.37,1.11.03.48.19.85.49,1.1.3.25.75.46,1.36.63.32.1.55.22.68.34.13.12.2.29.21.51.01.22-.04.39-.17.53-.12.13-.31.21-.57.22-.26.01-.48-.05-.65-.18-.17-.13-.27-.37-.29-.71l-1.12.06v.02c0,.56.19.98.53,1.25.34.27.76.42,1.27.44l.04.78.63-.03-.04-.78c.49-.08.87-.26,1.14-.55.27-.29.39-.66.37-1.12-.03-.48-.19-.85-.49-1.11-.3-.26-.75-.47-1.35-.63Z"/>
      <path class="cls-1" d="m60.97,67.75l.03-.25c.15-1,.02-1.81-.39-2.42-.41-.61-1.09-.92-2.05-.92-.89,0-1.69.34-2.4,1.01-.71.67-1.2,1.51-1.46,2.52l.02.06h6.25Z"/>
      <path class="cls-1" d="m136.44,69.64c-.73.47-1.14,1.03-1.24,1.68-.09.64.03,1.14.38,1.51.35.37.88.55,1.61.55.89,0,1.71-.22,2.47-.66.76-.44,1.31-1,1.66-1.68l.32-2.1h-2.69c-.94,0-1.77.24-2.5.71Z"/>
      <path class="cls-1" d="m16.14,64.16c-1.08,0-2.02.44-2.81,1.31-.79.88-1.28,1.93-1.46,3.15l-.05.33c-.2,1.31-.05,2.38.46,3.22.51.84,1.34,1.25,2.49,1.25,1.07,0,2.01-.43,2.8-1.3.79-.87,1.29-1.93,1.48-3.17l.05-.33c.19-1.29.03-2.35-.49-3.2-.51-.84-1.34-1.26-2.47-1.26Z"/>
      <path class="cls-1" d="m249.59,5.81h-.48s-17.86-.85-20,17.83c-.12,1.07-.11,3.12-.02,3.79.58,4.12,3.37,14.73,16.61,16.94,1.04.17,3.11.28,3.82.23,4.5-.33,16.53-2.67,18.34-18.32.05-.47.13-1.99,0-3.05-.54-4.42-3.39-15.86-18.27-17.44Zm-.86,13.72l5.31-5.31,2.7-2.7,3.22,3.22c-3.75,3.75-7.49,7.49-11.24,11.24l-3.22-3.22,3.22-3.22Zm10.25,16.92c-.15,1.26-1.04,2.31-2.31,2.31h-16.69c-1.27,0-2.16-1.05-2.31-2.31l-.84-6.97h22.99l-.84,6.97Zm1.51-7.68h-24.33v-4.79h8.57l4,4,4-4h7.76v4.79Z"/>
      <ellipse class="cls-1" cx="254.26" cy="33.96" rx="1.24" ry="3.11"/>
      <path class="cls-1" d="m242.41,30.85c-.69,0-1.24,1.39-1.24,3.11s.56,3.11,1.24,3.11,1.24-1.39,1.24-3.11-.56-3.11-1.24-3.11Z"/>
      <path class="cls-1" d="m138.88,37c.32.62.81,1.08,1.45,1.38s1.45.45,2.43.45c1.47,0,2.64-.66,3.51-1.98.87-1.32,1.48-3.13,1.84-5.43l.08-.56h0c.35-2.49.28-4.46-.19-5.89-.47-1.43-1.46-2.15-2.97-2.15-.94,0-1.78.19-2.52.58-.73.39-1.37.96-1.9,1.7l-1.72,11.9Z"/>
      <path class="cls-1" d="m247.09,33.96c0,1.72.56,3.11,1.24,3.11s1.24-1.39,1.24-3.11-.56-3.11-1.24-3.11-1.24,1.39-1.24,3.11Z"/>
      <path class="cls-1" d="m74.3,36.91h0s1.75-11.99,1.75-11.99c-.33-.69-.8-1.22-1.42-1.58-.62-.36-1.39-.54-2.32-.54-1.48,0-2.69.74-3.63,2.24-.94,1.5-1.59,3.44-1.93,5.81l-.08.56c-.36,2.41-.3,4.24.17,5.51.47,1.27,1.5,1.9,3.1,1.9.92,0,1.75-.16,2.48-.48.73-.31,1.36-.79,1.87-1.43Z"/>
      <path class="cls-1" d="m40.45,33.97c-.75.7-1.21,1.58-1.36,2.62-.12.85.06,1.52.53,2.01.47.49,1.13.73,1.99.73,1.02,0,1.98-.26,2.9-.78.92-.53,1.59-1.14,2.02-1.85h0s.54-3.78.54-3.78h-3.5c-1.32,0-2.35.35-3.11,1.05Z"/>
      <path class="cls-1" d="m224.73,48.26h-.31s-11.57-.55-12.96,11.56c-.08.7-.07,2.02-.01,2.46.38,2.67,2.18,9.55,10.76,10.98.67.11,2.01.18,2.48.15,2.92-.21,10.71-1.73,11.89-11.87.04-.3.08-1.29,0-1.97-.35-2.86-2.2-10.27-11.84-11.3Zm6.96,15.87l-14.68,1.75c-.39.05-.74-.24-.79-.63l-.73-7.03c-.04-.39.25-.75.64-.8l14.68-1.75c.39-.05.74.24.79.63l.73,7.03c.04.39-.25.75-.64.8Z"/>
      <path class="cls-1" d="m172.52,28.01l.1-.69c.22-1.54.13-2.67-.27-3.41-.4-.73-1.21-1.1-2.43-1.1-1.33,0-2.4.46-3.2,1.37h0c-.8.9-1.38,2.13-1.74,3.67l.05.16h7.49Z"/>
      <path class="cls-1" d="m22.37,23.37c1.19-1.08,1.9-2.45,2.14-4.1h-.01c.23-1.78-.06-3.2-.88-4.27-.82-1.07-2.19-1.61-4.09-1.61h-5.61l-1.7,11.61h5.64c1.82,0,3.33-.54,4.51-1.63Z"/>
      <path class="cls-2" d="m76.25,68.78h7.59l.14-.94c.21-1.42,0-2.55-.61-3.41-.61-.86-1.56-1.29-2.84-1.29s-2.52.5-3.55,1.49c-1.03.99-1.66,2.3-1.9,3.93l-.09.55c-.24,1.54.03,2.82.79,3.83.76,1.01,1.82,1.51,3.17,1.51.87,0,1.63-.13,2.29-.4.66-.27,1.21-.6,1.66-1l-.39-.83c-.42.36-.93.65-1.54.88-.61.22-1.23.33-1.87.33-1.12,0-1.93-.4-2.43-1.19-.51-.8-.66-1.84-.47-3.13l.05-.33Zm1.73-3.61c.71-.67,1.51-1.01,2.4-1.01.95,0,1.64.31,2.05.92.41.61.54,1.42.39,2.42l-.03.25h-6.25l-.02-.06c.26-1.01.75-1.85,1.46-2.52Z"/>
      <path class="cls-2" d="m67.45,63.14c-1.17,0-2.14.28-2.91.84-.77.56-1.22,1.27-1.34,2.14-.12.84.1,1.49.67,1.96.56.47,1.47.83,2.72,1.1,1.07.24,1.78.55,2.15.92.36.37.51.82.44,1.35-.08.54-.41,1-.99,1.39-.58.39-1.28.59-2.12.59s-1.47-.18-2.02-.53c-.55-.36-.79-.93-.73-1.71h-1.11l-.02.06c-.16.86.1,1.61.8,2.25.69.64,1.67.96,2.94.96s2.24-.28,3.04-.83c.8-.55,1.27-1.3,1.42-2.24.11-.85-.12-1.53-.71-2.03-.58-.5-1.49-.9-2.73-1.18-1.11-.25-1.83-.53-2.16-.85-.33-.32-.46-.73-.39-1.25.07-.5.36-.94.88-1.33.52-.39,1.2-.58,2.04-.58s1.51.22,1.96.65c.45.43.63.96.54,1.58h1.13l.02-.06c.15-.89-.1-1.64-.76-2.26-.66-.62-1.58-.93-2.75-.93Z"/>
      <path class="cls-2" d="m97.17,63.14c-.87,0-1.65.21-2.32.63-.67.42-1.23,1.01-1.67,1.77-.13-.81-.45-1.42-.96-1.81-.5-.4-1.15-.59-1.94-.59s-1.52.17-2.16.5c-.63.33-1.17.81-1.6,1.43l.15-1.72h-1.07l-1.63,10.9h1.21l1.14-7.61c.33-.74.78-1.33,1.35-1.77.57-.44,1.27-.66,2.1-.66s1.48.27,1.87.81c.39.54.48,1.5.28,2.87l-.96,6.38h1.22l.98-6.54.06-.44c.27-.89.72-1.63,1.32-2.21.6-.58,1.35-.87,2.24-.87s1.48.26,1.87.79c.39.53.48,1.49.27,2.89l-.96,6.38h1.21l.96-6.36c.23-1.6.08-2.79-.45-3.57-.54-.78-1.37-1.17-2.49-1.17Z"/>
      <path class="cls-2" d="m54.44,68.78h7.59l.14-.94c.21-1.42,0-2.55-.61-3.41-.61-.86-1.56-1.29-2.84-1.29s-2.52.5-3.55,1.49c-1.03.99-1.66,2.3-1.9,3.93l-.09.55c-.24,1.54.03,2.82.79,3.83.76,1.01,1.82,1.51,3.17,1.51.87,0,1.63-.13,2.29-.4.66-.27,1.21-.6,1.66-1l-.39-.83c-.42.36-.93.65-1.54.88-.61.22-1.23.33-1.87.33-1.11,0-1.93-.4-2.43-1.19-.51-.8-.66-1.84-.47-3.13l.05-.33Zm1.73-3.61c.71-.67,1.51-1.01,2.4-1.01.95,0,1.64.31,2.05.92.41.61.54,1.42.39,2.42l-.03.25h-6.25l-.02-.06c.26-1.01.75-1.85,1.46-2.52Z"/>
      <path class="cls-2" d="m31.34,71.04c-.34.73-.81,1.3-1.43,1.72-.61.42-1.37.63-2.25.63s-1.46-.28-1.82-.83c-.36-.55-.44-1.52-.22-2.9l.95-6.34h-1.21l-.95,6.32c-.24,1.63-.09,2.83.47,3.62.55.79,1.39,1.18,2.49,1.18.81,0,1.53-.17,2.17-.5.64-.33,1.18-.81,1.62-1.44l-.16,1.72h1.07l1.63-10.9h-1.21l-1.15,7.71Z"/>
      <polygon class="cls-2" points="20.68 74.24 21.88 74.24 24.23 58.52 23.04 58.52 20.68 74.24"/>
      <path class="cls-2" d="m16.29,63.14c-1.47,0-2.72.5-3.74,1.5-1.02,1-1.65,2.33-1.89,3.99l-.05.33c-.24,1.59.02,2.9.77,3.94.76,1.03,1.84,1.55,3.24,1.55s2.71-.5,3.72-1.49c1.02-.99,1.65-2.33,1.91-4l.05-.33c.24-1.58-.02-2.9-.78-3.93-.76-1.04-1.83-1.56-3.23-1.56Zm2.81,5.49l-.05.33c-.2,1.24-.69,2.3-1.48,3.17-.79.87-1.73,1.3-2.8,1.3-1.16,0-1.99-.42-2.49-1.25-.51-.84-.66-1.91-.46-3.22l.05-.33c.18-1.22.67-2.27,1.46-3.15.79-.88,1.73-1.31,2.81-1.31,1.14,0,1.96.42,2.47,1.26.51.84.68,1.91.49,3.2Z"/>
      <path class="cls-2" d="m6.05,59.36c-1.3,0-2.4.3-3.3.91-.91.61-1.44,1.45-1.6,2.52-.19,1.26.07,2.21.77,2.87.7.66,1.83,1.25,3.39,1.76,1.47.51,2.46,1.02,2.98,1.53.51.51.71,1.2.58,2.09-.11.66-.53,1.23-1.27,1.69-.74.46-1.6.69-2.56.69-1.16,0-2.13-.26-2.91-.78-.78-.52-1.07-1.39-.89-2.63H.1l-.02.06c-.26,1.49.11,2.59,1.1,3.3,1,.71,2.23,1.06,3.68,1.06s2.56-.29,3.52-.88c.95-.59,1.51-1.44,1.68-2.54.18-1.22-.09-2.16-.81-2.84-.72-.68-1.87-1.28-3.43-1.8-1.51-.52-2.5-1.02-2.97-1.52-.48-.5-.65-1.19-.5-2.09.09-.65.47-1.21,1.14-1.68.66-.47,1.46-.7,2.4-.7,1.17,0,2.07.31,2.69.94.62.63.86,1.45.72,2.46h1.13l.02-.06c.23-1.35-.08-2.42-.92-3.2-.84-.78-2-1.17-3.48-1.17Z"/>
      <path class="cls-2" d="m48.79,63.14c-1.47,0-2.72.5-3.74,1.5-1.02,1-1.65,2.33-1.89,3.99l-.05.33c-.24,1.59.02,2.9.77,3.94.76,1.03,1.83,1.55,3.24,1.55s2.71-.5,3.72-1.49c1.02-.99,1.65-2.33,1.91-4l.05-.33c.24-1.58-.03-2.9-.78-3.93-.76-1.04-1.83-1.56-3.23-1.56Zm2.81,5.49l-.05.33c-.19,1.24-.69,2.3-1.48,3.17-.79.87-1.73,1.3-2.8,1.3-1.16,0-1.99-.42-2.49-1.25-.51-.84-.66-1.91-.46-3.22l.05-.33c.18-1.22.67-2.27,1.46-3.15.79-.88,1.73-1.31,2.81-1.31,1.14,0,1.96.42,2.47,1.26.51.84.68,1.91.49,3.2Z"/>
      <path class="cls-2" d="m50.56,60.2c-.36,0-.79-.18-1.29-.55-.51-.37-.97-.55-1.39-.55-.56,0-1.05.19-1.47.57-.42.38-.67.87-.75,1.47l.79.18c.05-.36.2-.65.45-.89.26-.24.53-.36.84-.36.37,0,.79.18,1.27.55.48.37.95.55,1.42.55.56,0,1.04-.19,1.46-.57.42-.38.67-.87.76-1.49l-.78-.2c-.05.37-.21.67-.47.92-.26.24-.54.36-.84.36Z"/>
      <path class="cls-2" d="m39.45,63.14c-1.46,0-2.67.5-3.62,1.49-.95.99-1.55,2.31-1.79,3.95l-.06.42c-.24,1.57-.02,2.87.67,3.9.57.86,1.4,1.36,2.47,1.5l-.45,1.2c.71.05,1.18.15,1.43.3.25.14.34.41.28.81-.06.4-.32.7-.77.9-.45.2-.97.31-1.56.31l-.04.79h0c.99,0,1.78-.18,2.35-.53.58-.35.92-.85,1.02-1.49.07-.56-.03-.97-.31-1.23-.28-.27-.68-.43-1.21-.49l.18-.53c.99-.05,1.9-.37,2.73-.97.91-.65,1.43-1.51,1.57-2.56l-.02-.06h-1.07c-.13.81-.53,1.44-1.2,1.9-.67.46-1.39.69-2.13.69-1.16,0-1.96-.41-2.39-1.22-.43-.82-.54-1.89-.34-3.21l.06-.42c.19-1.24.64-2.28,1.35-3.13.71-.85,1.61-1.28,2.71-1.28.84,0,1.5.25,1.99.76.49.5.66,1.21.53,2.12h1.09l.02-.05c.19-1.14-.05-2.07-.75-2.78-.69-.71-1.6-1.07-2.73-1.07Z"/>
      <path class="cls-2" d="m190.86,63.14c-1.47,0-2.72.5-3.74,1.5-1.02,1-1.65,2.33-1.89,3.99l-.05.33c-.24,1.59.02,2.9.77,3.94.76,1.03,1.84,1.55,3.24,1.55s2.71-.5,3.72-1.49c1.02-.99,1.65-2.33,1.91-4l.05-.33c.23-1.58-.03-2.9-.78-3.93-.76-1.04-1.83-1.56-3.23-1.56Zm2.81,5.49l-.05.33c-.19,1.24-.69,2.3-1.48,3.17-.79.87-1.73,1.3-2.8,1.3-1.16,0-1.99-.42-2.49-1.25-.51-.84-.66-1.91-.46-3.22l.05-.33c.18-1.22.67-2.27,1.46-3.15.79-.88,1.73-1.31,2.81-1.31,1.14,0,1.96.42,2.47,1.26.51.84.68,1.91.49,3.2Z"/>
      <path class="cls-2" d="m169.18,64.43c-.61-.86-1.56-1.29-2.84-1.29s-2.52.5-3.55,1.49c-1.03.99-1.66,2.3-1.9,3.93l-.09.55c-.24,1.54.03,2.82.79,3.83.76,1.01,1.82,1.51,3.17,1.51.87,0,1.63-.13,2.29-.4.66-.27,1.21-.6,1.66-1l-.39-.83c-.42.36-.93.65-1.54.88-.61.22-1.23.33-1.87.33-1.11,0-1.93-.4-2.43-1.19-.51-.8-.66-1.84-.47-3.13l.05-.33h7.59l.14-.94c.21-1.42,0-2.55-.61-3.41Zm-.55,3.07l-.03.25h-6.25l-.02-.06c.26-1.01.75-1.85,1.46-2.52.71-.67,1.51-1.01,2.4-1.01.95,0,1.64.31,2.05.92.41.61.54,1.42.39,2.42Z"/>
      <path class="cls-2" d="m183.74,73.36c-.15.02-.3.03-.44.03-.44,0-.76-.14-.98-.42-.21-.28-.27-.8-.15-1.54l1.06-7.1h2.41l.14-.99h-2.4l.42-2.79h-1.22l-.42,2.79h-1.88l-.14.99h1.87l-1.06,7.1c-.16,1.04-.06,1.8.31,2.29.37.49.92.73,1.66.73.24,0,.47-.02.72-.07.24-.05.45-.11.63-.2l-.05-.9c-.17.03-.34.06-.49.08Z"/>
      <path class="cls-2" d="m176.19,63.14c-.82,0-1.55.17-2.19.52-.64.35-1.19.85-1.64,1.5l.16-1.82h-1.07l-1.63,10.9h1.21l1.15-7.64c.36-.73.83-1.31,1.44-1.75.6-.44,1.32-.66,2.15-.66.88,0,1.51.25,1.89.74.38.49.48,1.39.29,2.68l-1,6.63h1.21l1-6.64c.23-1.52.08-2.64-.45-3.37-.53-.73-1.37-1.09-2.51-1.09Z"/>
      <path class="cls-2" d="m200.35,63.14c-1.17,0-2.14.28-2.91.84-.77.56-1.22,1.27-1.34,2.14-.12.84.1,1.49.66,1.96.56.47,1.47.83,2.72,1.1,1.07.24,1.78.55,2.15.92s.51.82.44,1.35c-.08.54-.41,1-.99,1.39-.58.39-1.28.59-2.12.59s-1.47-.18-2.02-.53c-.55-.36-.79-.93-.73-1.71h-1.11l-.02.06c-.16.86.1,1.61.8,2.25.69.64,1.67.96,2.94.96s2.24-.28,3.04-.83c.8-.55,1.27-1.3,1.42-2.24.11-.85-.12-1.53-.71-2.03-.58-.5-1.49-.9-2.73-1.18-1.11-.25-1.83-.53-2.16-.85-.33-.32-.46-.73-.39-1.25.07-.5.36-.94.88-1.33.52-.39,1.2-.58,2.03-.58s1.51.22,1.96.65c.45.43.63.96.54,1.58h1.13l.02-.06c.03-.17.04-.33.04-.48h0c0-.68-.27-1.27-.8-1.78-.66-.62-1.58-.93-2.75-.93Z"/>
      <path class="cls-2" d="m156.96,63.14c-.87,0-1.65.21-2.32.63-.68.42-1.23,1.01-1.67,1.77-.13-.81-.45-1.42-.96-1.81-.5-.4-1.15-.59-1.94-.59s-1.52.17-2.16.5c-.63.33-1.17.81-1.6,1.43l.15-1.72h-1.07l-1.63,10.9h1.21l1.14-7.61c.33-.74.78-1.33,1.35-1.77.57-.44,1.27-.66,2.1-.66s1.48.27,1.87.81c.39.54.48,1.5.28,2.87l-.96,6.38h1.22l.98-6.54.06-.44c.28-.89.72-1.63,1.32-2.21.6-.58,1.35-.87,2.24-.87s1.48.26,1.87.79c.39.53.48,1.49.27,2.89l-.96,6.38h1.21l.96-6.36c.24-1.6.08-2.79-.45-3.57-.54-.78-1.37-1.17-2.49-1.17Z"/>
      <path class="cls-2" d="m110.68,63.14c-.78,0-1.48.16-2.11.49-.62.33-1.16.8-1.62,1.41l.03-1.7h-.93l-2.26,15.09h1.21l.85-5.69c.3.54.71.97,1.24,1.26.53.3,1.17.45,1.91.45,1.32,0,2.41-.47,3.28-1.41.87-.94,1.43-2.26,1.69-3.95l.03-.21c.26-1.72.08-3.11-.52-4.16-.6-1.05-1.54-1.58-2.8-1.58Zm2.12,5.74l-.03.21c-.2,1.29-.64,2.34-1.33,3.14-.68.8-1.53,1.2-2.55,1.2-.77,0-1.39-.17-1.86-.51-.47-.34-.8-.8-.99-1.39l.79-5.23c.36-.62.83-1.12,1.41-1.52.57-.4,1.25-.59,2.03-.59,1.07,0,1.81.42,2.23,1.27.42.85.52,1.99.31,3.42Z"/>
      <path class="cls-2" d="m120.04,63.14c-1.2,0-2.22.3-3.05.91-.83.61-1.29,1.33-1.38,2.18l.02.06h1.11c.09-.6.43-1.11,1.02-1.52.58-.41,1.27-.61,2.07-.61.91,0,1.58.21,2,.64.42.43.57,1.05.46,1.86l-.2,1.35h-2.68c-1.38,0-2.53.29-3.47.88-.94.58-1.48,1.38-1.63,2.4-.15.96.04,1.73.56,2.3.52.57,1.3.86,2.33.86.87,0,1.68-.19,2.41-.58.74-.39,1.33-.87,1.8-1.46-.04.28-.06.54-.06.81s0,.6.02,1.02h1.26c-.05-.36-.07-.71-.06-1.07.01-.36.05-.73.11-1.13l.81-5.36c.17-1.13-.08-2-.73-2.62-.65-.62-1.56-.93-2.72-.93Zm1.58,7.9c-.35.68-.9,1.24-1.66,1.68-.76.44-1.58.66-2.47.66-.73,0-1.26-.18-1.61-.55-.35-.37-.47-.87-.38-1.51.1-.65.52-1.21,1.24-1.68.73-.47,1.56-.71,2.5-.71h2.69l-.32,2.1Z"/>
      <path class="cls-2" d="m133.09,63.34l-.44,1.76c-.28-.62-.69-1.11-1.21-1.45-.53-.34-1.16-.51-1.91-.51-1.33,0-2.43.51-3.31,1.52-.88,1.01-1.45,2.42-1.72,4.22l-.03.21c-.25,1.6-.06,2.9.55,3.88.62.98,1.55,1.48,2.8,1.48.75,0,1.42-.15,2.04-.44.61-.29,1.14-.71,1.59-1.25l-.23,1.54c-.16,1.06-.56,1.87-1.19,2.43-.63.56-1.46.84-2.5.84-.56,0-1.08-.06-1.56-.17-.48-.11-.92-.27-1.33-.49l-.38,1.02c.41.22.91.4,1.49.52.58.13,1.13.19,1.64.19,1.42,0,2.56-.36,3.43-1.09.87-.73,1.41-1.81,1.63-3.25l1.64-10.96h-.98Zm-1.45,8.1c-.4.6-.89,1.08-1.47,1.44-.58.35-1.24.53-1.98.53-1.07,0-1.81-.38-2.22-1.14-.41-.76-.52-1.82-.31-3.17l.03-.21c.2-1.36.65-2.49,1.34-3.37.69-.88,1.55-1.32,2.57-1.32.8,0,1.42.19,1.87.58.45.39.76.89.94,1.5l-.78,5.18Z"/>
      <path class="cls-2" d="m139.73,63.14c-1.2,0-2.22.3-3.05.91-.83.61-1.29,1.33-1.38,2.18l.02.06h1.11c.09-.6.43-1.11,1.02-1.52.58-.41,1.27-.61,2.07-.61.91,0,1.58.21,2,.64.42.43.57,1.05.46,1.86l-.2,1.35h-2.68c-1.38,0-2.53.29-3.47.88-.94.58-1.48,1.38-1.63,2.4-.15.96.04,1.73.56,2.3.52.57,1.3.86,2.33.86.87,0,1.68-.19,2.41-.58.74-.39,1.33-.87,1.8-1.46-.04.28-.06.54-.06.81s0,.6.02,1.02h1.26c-.05-.36-.07-.71-.06-1.07.01-.36.05-.73.11-1.13l.81-5.36c.17-1.13-.08-2-.73-2.62-.65-.62-1.56-.93-2.72-.93Zm1.58,7.9c-.35.68-.9,1.24-1.66,1.68-.76.44-1.58.66-2.47.66-.73,0-1.26-.18-1.61-.55-.35-.37-.47-.87-.38-1.51.1-.65.52-1.21,1.24-1.68.73-.47,1.56-.71,2.5-.71h2.69l-.32,2.1Z"/>
      <path class="cls-2" d="m208.85,45.24l.25-.86,1.48.1.14.94s.25.67,1.16.49l2.27-.51s.64-.1.64-.93l-.22-.94s1.19-.49,1.26-.6l.69.71s.44.35.94.09l1.98-1.84s.34-.22.25-.93l-.77-.87s.7-1.05.72-1.16l.93.25s.59.15.79-.22l.9-2.49s.22-1.05-.29-1.18l-1.01-.33.02-1.41,1.02-.22s.64-.38.41-1.09l-.43-2.35s-.07-.46-.63-.6c-.36-.09-.43-.03-.62.02-.26.06-.69.16-.69.16l-.61-1.18.8-.85s.31-.26.02-.94l-1.92-1.98s-.1-.26-.72-.12l2.43,2.43c-.59.59-1.18,1.18-1.78,1.78,1.01,1.6,1.37,3.27,1.49,4.24.06.51.03,1.25,0,1.48-.88,7.58-6.7,8.71-8.89,8.87-.35.03-1.35-.03-1.85-.11-6.41-1.07-7.76-6.21-8.05-8.21-.05-.33-.05-1.32,0-1.84.1-.85.28-1.6.5-2.29l-.94-.94,3.22-3.22.2.2c2.87-2.56,6.71-2.39,6.71-2.39h.23c1.61.18,2.91.59,3.99,1.15l.87-.87-.33-.19.25-.78s.44-1.11-.92-1.27l-1.86-.66s-.73-.28-1.02.3l-.41,1.09-1.33-.02-.3-1.02s-.02-.71-1.16-.49c0,0-1.36.33-1.9.46-.12.03-.32.06-.47.13-.21.1-.46.31-.47.77l.22,1.02s-1.15.6-1.18.68l-.77-.79s-.29-.46-1.09-.02l-1.83,1.77s-.56.44-.1,1.09l.69.71s-.64.91-.72,1.16l-1.01-.25s-.42-.3-.85.31c-.09.13-.22.46-.26.6-.14.47-.4,1.36-.52,1.76-.03.12-.08.28-.1.4-.03.21-.02.54.25.72.04.03.41.16.65.24.18.06.44.19.52.18l-.02,1.41-1.1.22s-.65.09-.49,1.09l.58,2.43s.14.59,1.01.49l.78-.22s.54,1.14.68,1.26l-.8.85s-.32.43-.01.86c.22.32,1.77,1.98,1.77,1.98,0,0,.43.44,1.09.1l.79-.69s.82.6,1.08.72l-.25.93s-.12.7.45.95l2.41.82s.98.12,1.1-.53Z"/>
      <path class="cls-3" d="m217.47,24.44c.05-.01.09-.02.14-.03l-.78-.78-1.05,1.05.91.53.79-.77Z"/>
      <path class="cls-3" d="m214.9,25.55l-6.09,6.09-4.84-4.84c-1.03.92-1.92,2.2-2.48,3.96l7.33,7.32c3.15-3.15,6.31-6.31,9.46-9.46-.73-1.15-1.8-2.26-3.37-3.07Z"/>
      <path class="cls-3" d="m218.27,28.62c.59-.59,1.18-1.18,1.78-1.78l-2.43-2.43s-.09.02-.14.03l-.79.77-.91-.53-.87.87c1.57.81,2.64,1.92,3.37,3.07Z"/>
      <path class="cls-3" d="m203.97,26.8l-.2-.2-3.22,3.22.94.94c.56-1.76,1.45-3.04,2.48-3.96Z"/>
      <path class="cls-2" d="m239.59,60.21s.86-.51.55-1.45l-.58-3.15s-.1-.61-.85-.8c-.48-.12-.58-.04-.83.03-.34.09-.93.21-.93.21l-.81-1.58,1.06-1.13s.42-.35.02-1.25l-2.57-2.66s-.14-.4-1.15-.12l-1.06,1.03-1.66-.97.33-1.04s.58-1.48-1.23-1.69l-2.49-.88s-.98-.38-1.37.4l-.55,1.45-1.78-.03-.4-1.37s-.02-.95-1.56-.65c0,0-1.82.44-2.54.61-.16.04-.43.08-.63.18-.27.13-.62.42-.63,1.03l.29,1.36s-1.54.8-1.58.91l-1.03-1.06s-.39-.62-1.46-.02l-2.44,2.36s-.75.59-.13,1.46l.93.96s-.86,1.21-.97,1.55l-1.35-.34s-.57-.4-1.14.41c-.12.17-.29.61-.35.8-.18.63-.54,1.83-.69,2.36-.05.16-.11.37-.14.54-.04.29-.02.73.34.96.05.03.55.22.87.32.23.08.58.25.7.25l-.03,1.88-1.47.29s-.86.12-.65,1.45l.78,3.25s.19.79,1.35.65l1.05-.3s.72,1.53.91,1.69l-1.06,1.13s-.43.57-.02,1.15c.29.43,2.36,2.65,2.36,2.65,0,0,.57.59,1.46.13l1.06-.92s1.09.81,1.45.96l-.33,1.25s-.17.93.61,1.26l3.22,1.1s1.31.16,1.48-.71l.33-1.14,1.98.14.19,1.26s.34.9,1.56.65l3.04-.68s.86-.14.86-1.24l-.29-1.26s1.6-.65,1.69-.81l.93.96s.59.46,1.25.12l2.65-2.46s.46-.29.33-1.25l-1.03-1.17s.94-1.41.97-1.55l1.25.33s.79.2,1.05-.3l1.2-3.33s.29-1.4-.39-1.57l-1.35-.44.03-1.88,1.36-.29Zm-3.02,1.32c-1.18,10.14-8.97,11.66-11.89,11.87-.47.03-1.81-.04-2.48-.15-8.58-1.44-10.39-8.31-10.76-10.98-.06-.44-.07-1.76.01-2.46,1.39-12.11,12.96-11.56,12.96-11.56h.31c9.64,1.03,11.49,8.44,11.84,11.31.08.68.04,1.67,0,1.97Z"/>
      <path class="cls-2" d="m230.82,55.68l-14.68,1.75c-.39.05-.68.41-.64.8l.73,7.03c.04.39.39.67.79.63l14.68-1.75c.39-.05.68-.41.64-.8l-.73-7.03c-.04-.39-.39-.67-.79-.63Zm-5.3,7.51c-.27.29-.65.47-1.14.55l.04.78-.63.03-.04-.78c-.51-.02-.93-.16-1.27-.44-.34-.27-.52-.69-.54-1.25v-.02s1.13-.06,1.13-.06c.02.34.11.57.29.71.17.13.39.19.65.18.26-.01.45-.09.57-.22.12-.13.18-.31.17-.53-.01-.22-.08-.39-.21-.51-.13-.12-.36-.24-.68-.34-.6-.17-1.06-.38-1.36-.63-.3-.25-.46-.62-.49-1.1-.02-.44.1-.81.37-1.11.27-.3.65-.48,1.14-.56l-.05-.84.63-.03.05.86c.48.04.86.2,1.14.49.28.29.44.68.45,1.16v.02s-1.13.06-1.13.06c-.02-.29-.09-.5-.23-.65-.14-.15-.32-.21-.56-.2-.25.01-.42.09-.53.22-.1.14-.15.31-.14.53.01.2.08.36.2.48.12.11.35.23.69.35.59.16,1.04.37,1.35.63.3.26.47.63.49,1.11.03.46-.1.83-.37,1.12Z"/>
      <path class="cls-2" d="m272.46,28.28l-2.09-.68.05-2.9,2.1-.45s1.33-.79.84-2.24l-.89-4.85s-.15-.94-1.3-1.24c-.74-.19-.89-.06-1.28.04-.53.13-1.43.32-1.43.32l-1.25-2.44,1.64-1.75s.65-.55.03-1.94l-3.97-4.1s-.22-.62-1.77-.19l-1.64,1.59-2.56-1.49.51-1.61s.9-2.28-1.89-2.61l-3.85-1.35s-1.51-.58-2.11.61l-.84,2.24-2.74-.04-.61-2.11s-.04-1.46-2.4-1.01c0,0-2.8.68-3.92.95-.25.06-.66.13-.97.27-.42.2-.96.64-.97,1.59l.45,2.1s-2.38,1.24-2.44,1.41l-1.59-1.64s-.6-.96-2.26-.04l-3.77,3.65s-1.15.91-.2,2.25l1.43,1.48s-1.33,1.87-1.49,2.4l-2.09-.52s-.87-.62-1.76.64c-.18.26-.45.95-.54,1.23-.28.97-.83,2.82-1.07,3.63-.07.24-.18.57-.21.83-.06.44-.03,1.12.52,1.48.08.05.85.34,1.35.5.36.12.9.39,1.08.38l-.05,2.9-2.27.45s-1.33.19-1,2.24l1.21,5.02s.3,1.22,2.08,1l1.62-.46s1.12,2.36,1.41,2.6l-1.64,1.75s-.67.88-.03,1.77c.45.66,3.64,4.09,3.64,4.09,0,0,.88.91,2.26.2l1.64-1.42s1.68,1.24,2.23,1.49l-.52,1.93s-.26,1.44.94,1.95l4.97,1.69s2.02.25,2.28-1.09l.51-1.77,3.06.21.29,1.94s.52,1.38,2.4,1.01l4.7-1.05s1.32-.21,1.32-1.91l-.45-1.94s2.46-1,2.6-1.25l1.43,1.47s.92.72,1.93.19l4.1-3.8s.71-.45.52-1.93l-1.58-1.8s1.45-2.18,1.49-2.4l1.93.52s1.21.3,1.62-.46l1.86-5.13s.45-2.16-.61-2.43Zm-4.59-1.99c-1.82,15.65-13.84,17.99-18.34,18.32-.72.05-2.79-.06-3.82-.23-13.24-2.21-16.03-12.82-16.61-16.94-.1-.67-.11-2.72.02-3.79,2.14-18.69,20-17.84,20-17.84h.48c14.88,1.59,17.73,13.03,18.27,17.45.13,1.05.06,2.58,0,3.05Z"/>
      <path class="cls-2" d="m236.84,29.48l.84,6.97c.15,1.26,1.04,2.31,2.31,2.31h16.69c1.27,0,2.16-1.05,2.31-2.31l.84-6.97h-22.99Zm5.57,7.59c-.69,0-1.24-1.39-1.24-3.11s.56-3.11,1.24-3.11,1.24,1.39,1.24,3.11-.56,3.11-1.24,3.11Zm11.85-6.21c.69,0,1.24,1.39,1.24,3.11s-.56,3.11-1.24,3.11-1.24-1.39-1.24-3.11.56-3.11,1.24-3.11Zm-4.68,3.11c0,1.72-.56,3.11-1.24,3.11s-1.24-1.39-1.24-3.11.56-3.11,1.24-3.11,1.24,1.39,1.24,3.11Z"/>
      <path class="cls-2" d="m259.97,14.73l-3.22-3.22-2.7,2.7-5.31,5.31-3.22,3.22,3.22,3.22c3.75-3.75,7.49-7.49,11.24-11.24Z"/>
      <polygon class="cls-2" points="248.74 27.97 244.74 23.97 236.17 23.97 236.17 28.77 260.5 28.77 260.5 23.97 252.74 23.97 248.74 27.97"/>
      <path class="cls-2" d="m187.73,45.18l2.73-18.86c.43-.71.99-1.26,1.7-1.66.7-.4,1.54-.6,2.5-.6l2.83.03,1.98-7.86c-.33-.11-.65-.19-.97-.24h0c-.32-.06-.67-.09-1.04-.09-1.3,0-2.49.39-3.55,1.18-1.06.79-1.96,1.91-2.68,3.36l-.13-.08.28-3.93h-8.19s-4.17,28.75-4.17,28.75h8.7Z"/>
      <path class="cls-2" d="m11.22,31.92h5.64c4.5,0,8.2-1.13,11.11-3.39,2.91-2.26,4.65-5.36,5.24-9.31.53-3.76-.38-6.81-2.73-9.18h0c-2.35-2.36-5.66-3.55-9.94-3.55H6.23S.62,45.18.62,45.18h8.7l1.9-13.26Zm2.7-18.53h5.61c1.9,0,3.27.54,4.09,1.61.82,1.07,1.11,2.49.88,4.26h.01c-.24,1.66-.95,3.03-2.14,4.11-1.18,1.09-2.69,1.63-4.51,1.63h-5.64l1.7-11.61Z"/>
      <polygon class="cls-2" points="127.34 45.18 131.51 16.43 122.78 16.43 118.61 45.18 127.34 45.18"/>
      <polygon class="cls-2" points="133.36 3.73 124.64 3.73 123.76 9.76 132.49 9.76 133.36 3.73"/>
      <path class="cls-2" d="m133.16,16.43l-5.77,39.8h8.7l1.98-13.79c.63,1.08,1.43,1.9,2.39,2.46.96.56,2.1.84,3.42.84,3.47,0,6.32-1.27,8.55-3.8,1.26-1.44,2.28-3.18,3.04-5.24.34,1.88,1.09,3.57,2.25,5.04,2.09,2.67,5.17,4,9.22,4,2.23,0,4.41-.31,6.53-.93,2.12-.62,3.84-1.38,5.16-2.28l-1.29-5.47c-1.48.6-2.81,1.05-4.02,1.34h0c-1.2.28-2.6.43-4.2.43-1.78,0-3.08-.46-3.89-1.37-.81-.91-1.17-2.14-1.08-3.68l.05-.16h15.99l.7-4.7c.57-3.99-.05-7.15-1.85-9.5-1.8-2.35-4.5-3.52-8.11-3.52-4.31-.02-7.78,1.32-10.41,4-1.47,1.49-2.62,3.28-3.48,5.35-.2-1.97-.73-3.7-1.57-5.19-1.56-2.77-4-4.16-7.31-4.16-1.39,0-2.66.32-3.82.96-1.16.64-2.21,1.54-3.15,2.71l.18-3.14h-8.21Zm33.56,7.74h0c.8-.9,1.87-1.36,3.2-1.36,1.22,0,2.03.37,2.43,1.1.4.74.49,1.87.27,3.41l-.1.69h-7.49s-.05-.16-.05-.16c.36-1.54.94-2.77,1.74-3.68Zm-24.22-.77c.74-.39,1.58-.58,2.52-.58,1.51,0,2.5.72,2.97,2.15.47,1.43.54,3.4.19,5.9h0s-.08.55-.08.55c-.36,2.3-.97,4.11-1.84,5.43-.87,1.32-2.04,1.98-3.51,1.98-.98,0-1.79-.15-2.43-.45s-1.13-.76-1.45-1.38l1.72-11.9c.53-.74,1.17-1.31,1.9-1.7Z"/>
      <path class="cls-2" d="m71.25,48.42c-1.05.77-2.46,1.16-4.25,1.16-1.48,0-2.76-.14-3.86-.41-1.1-.27-2.23-.7-3.4-1.26l-2.47,6.64c1.3.69,2.74,1.24,4.3,1.65,1.56.41,3.04.61,4.43.61,4.46,0,8.08-1.01,10.86-3.02,2.78-2.01,4.46-4.98,5.05-8.91l4.12-28.43h-7.67l-.02-.02-1.13,3.75c-.64-1.36-1.45-2.42-2.46-3.16-1-.74-2.22-1.12-3.64-1.12-3.48,0-6.36,1.33-8.62,4-2.27,2.67-3.73,6.32-4.4,10.96l-.08.56c-.64,4.23-.16,7.68,1.42,10.34,1.58,2.66,4.02,3.99,7.31,3.99,1.32,0,2.54-.27,3.66-.8,1.11-.53,2.14-1.31,3.09-2.34l-.31,2.21c-.24,1.63-.88,2.83-1.93,3.6Zm1.18-10.08c-.73.32-1.56.48-2.48.48-1.6,0-2.63-.63-3.1-1.9-.47-1.27-.53-3.1-.17-5.51l.08-.56c.34-2.37.99-4.31,1.93-5.81.94-1.5,2.15-2.24,3.63-2.24.93,0,1.7.18,2.32.54.62.36,1.09.89,1.42,1.58l-1.75,11.98h0c-.51.65-1.14,1.13-1.87,1.44Z"/>
      <path class="cls-2" d="m33.31,25.28l8.44.03c.14-1.01.5-1.76,1.08-2.26.58-.5,1.36-.74,2.34-.74,1.18,0,2.01.31,2.47.94.46.63.61,1.58.44,2.86l-.31,2.05h-3.58c-4.27,0-7.54.75-9.81,2.25-2.27,1.5-3.61,3.72-4.04,6.68-.38,2.64.15,4.74,1.6,6.31,1.44,1.57,3.57,2.35,6.38,2.35,1.78,0,3.29-.46,4.53-1.37,1.24-.91,2.34-2.13,3.32-3.65,0,.83.07,1.63.19,2.39.13.76.3,1.44.53,2.05l8.6.03c-.31-1.35-.5-2.65-.57-3.92-.07-1.27.02-2.69.26-4.26l1.57-10.84c.48-3.26-.25-5.78-2.19-7.57v-.03c-1.94-1.79-4.57-2.68-7.9-2.68-3.71,0-6.79.85-9.25,2.56-2.46,1.71-3.84,3.93-4.13,6.66l.03.16Zm13.21,11.41h0c-.43.72-1.1,1.33-2.02,1.86-.92.52-1.88.78-2.9.78-.86,0-1.52-.24-1.99-.73-.47-.49-.65-1.16-.53-2.01.15-1.04.61-1.92,1.36-2.62.76-.7,1.79-1.05,3.11-1.05h3.5s-.54,3.77-.54,3.77Z"/>
      <polygon class="cls-2" points="93.39 45.18 95.62 29.61 109.5 29.61 107.26 45.18 115.93 45.18 121.55 6.49 112.87 6.49 110.5 22.7 96.63 22.7 99 6.49 90.3 6.49 84.68 45.18 93.39 45.18"/>
    </g>
  </g>
</svg>