<?xml version="1.0" encoding="UTF-8"?>
<svg id="Camada_2" data-name="Camada 2" xmlns="http://www.w3.org/2000/svg" xmlns:xlink="http://www.w3.org/1999/xlink" viewBox="0 0 5947.42 3507.26">
  <defs>
    <style>
      .cls-1, .cls-2 {
        fill: none;
      }

      .cls-3 {
        clip-path: url(#clippath);
      }

      .cls-2 {
        stroke: #16539b;
        stroke-miterlimit: 10;
        stroke-width: 28.35px;
      }
    </style>
    <clipPath id="clippath">
      <rect class="cls-1" width="5947.42" height="3507.26"/>
    </clipPath>
  </defs>
  <g id="Arte">
    <g class="cls-3">
      <g>
        <g id="_Repetição_de_grade_" data-name="&amp;lt;Repetição de grade&amp;gt;">
          <path class="cls-2" d="m0,0h0C259.83,0,470.77,210.94,470.77,470.77H0V0H0Z" transform="translate(470.77 470.77) rotate(180)"/>
        </g>
        <g id="_Repetição_de_grade_-2" data-name="&amp;lt;Repetição de grade&amp;gt;">
          <path class="cls-2" d="m599.09,0h470.77c0,259.83-210.94,470.77-470.77,470.77h0V0h0Z" transform="translate(1668.96 470.77) rotate(180)"/>
        </g>
        <g id="_Repetição_de_grade_-3" data-name="&amp;lt;Repetição de grade&amp;gt;">
          <path class="cls-2" d="m1198.19,0h0C1458.01,0,1668.96,210.94,1668.96,470.77h-470.77V0h0Z" transform="translate(2867.14 470.77) rotate(180)"/>
        </g>
        <g id="_Repetição_de_grade_-4" data-name="&amp;lt;Repetição de grade&amp;gt;">
          <path class="cls-2" d="m1797.28,0h470.77c0,259.83-210.94,470.77-470.77,470.77h0V0h0Z" transform="translate(4065.33 470.77) rotate(180)"/>
        </g>
        <g id="_Repetição_de_grade_-5" data-name="&amp;lt;Repetição de grade&amp;gt;">
          <path class="cls-2" d="m2396.37,0h0C2656.2,0,2867.14,210.94,2867.14,470.77h-470.77V0h0Z" transform="translate(5263.52 470.77) rotate(180)"/>
        </g>
        <g id="_Repetição_de_grade_-6" data-name="&amp;lt;Repetição de grade&amp;gt;">
          <path class="cls-2" d="m2995.47,0h470.77c0,259.83-210.94,470.77-470.77,470.77h0V0h0Z" transform="translate(6461.7 470.77) rotate(180)"/>
        </g>
        <g id="_Repetição_de_grade_-7" data-name="&amp;lt;Repetição de grade&amp;gt;">
          <path class="cls-2" d="m3594.56,0h0C3854.39,0,4065.33,210.94,4065.33,470.77h-470.77V0h0Z" transform="translate(7659.89 470.77) rotate(180)"/>
        </g>
        <g id="_Repetição_de_grade_-8" data-name="&amp;lt;Repetição de grade&amp;gt;">
          <path class="cls-2" d="m4193.65,0h470.77c0,259.83-210.94,470.77-470.77,470.77h0V0h0Z" transform="translate(8858.08 470.77) rotate(180)"/>
        </g>
        <g id="_Repetição_de_grade_-9" data-name="&amp;lt;Repetição de grade&amp;gt;">
          <path class="cls-2" d="m4792.75,0h0C5052.57,0,5263.52,210.94,5263.52,470.77h-470.77V0h0Z" transform="translate(10056.27 470.77) rotate(180)"/>
        </g>
        <g id="_Repetição_de_grade_-10" data-name="&amp;lt;Repetição de grade&amp;gt;">
          <path class="cls-2" d="m5391.84,0h470.77c0,259.83-210.94,470.77-470.77,470.77h0V0h0Z" transform="translate(11254.45 470.77) rotate(180)"/>
        </g>
        <g id="_Repetição_de_grade_-11" data-name="&amp;lt;Repetição de grade&amp;gt;">
          <path class="cls-2" d="m0,599.09h470.77C470.77,858.92,259.82,1069.86,0,1069.86h0v-470.77H0Z"/>
        </g>
        <g id="_Repetição_de_grade_-12" data-name="&amp;lt;Repetição de grade&amp;gt;">
          <path class="cls-2" d="m599.09,599.09h0c259.82,0,470.77,210.94,470.77,470.77h-470.77v-470.77h0Z"/>
        </g>
        <g id="_Repetição_de_grade_-13" data-name="&amp;lt;Repetição de grade&amp;gt;">
          <path class="cls-2" d="m1198.19,599.09h470.77c0,259.83-210.94,470.77-470.77,470.77h0v-470.77h0Z"/>
        </g>
        <g id="_Repetição_de_grade_-14" data-name="&amp;lt;Repetição de grade&amp;gt;">
          <path class="cls-2" d="m1797.28,599.09h0c259.82,0,470.77,210.94,470.77,470.77h-470.77v-470.77h0Z"/>
        </g>
        <g id="_Repetição_de_grade_-15" data-name="&amp;lt;Repetição de grade&amp;gt;">
          <path class="cls-2" d="m2396.37,599.09h470.77c0,259.83-210.94,470.77-470.77,470.77h0v-470.77h0Z"/>
        </g>
        <g id="_Repetição_de_grade_-16" data-name="&amp;lt;Repetição de grade&amp;gt;">
          <path class="cls-2" d="m2995.47,599.09h0c259.82,0,470.77,210.94,470.77,470.77h-470.77v-470.77h0Z"/>
        </g>
        <g id="_Repetição_de_grade_-17" data-name="&amp;lt;Repetição de grade&amp;gt;">
          <path class="cls-2" d="m3594.56,599.09h470.77c0,259.83-210.94,470.77-470.77,470.77h0v-470.77h0Z"/>
        </g>
        <g id="_Repetição_de_grade_-18" data-name="&amp;lt;Repetição de grade&amp;gt;">
          <path class="cls-2" d="m4193.65,599.09h0c259.82,0,470.77,210.94,470.77,470.77h-470.77v-470.77h0Z"/>
        </g>
        <g id="_Repetição_de_grade_-19" data-name="&amp;lt;Repetição de grade&amp;gt;">
          <path class="cls-2" d="m4792.75,599.09h470.77c0,259.83-210.94,470.77-470.77,470.77h0v-470.77h0Z"/>
        </g>
        <g id="_Repetição_de_grade_-20" data-name="&amp;lt;Repetição de grade&amp;gt;">
          <path class="cls-2" d="m5391.84,599.09h0c259.82,0,470.77,210.94,470.77,470.77h-470.77v-470.77h0Z"/>
        </g>
        <g id="_Repetição_de_grade_-21" data-name="&amp;lt;Repetição de grade&amp;gt;">
          <path class="cls-2" d="m0,1198.19h0c259.82,0,470.77,210.94,470.77,470.77H0v-470.77H0Z" transform="translate(470.77 2867.14) rotate(180)"/>
        </g>
        <g id="_Repetição_de_grade_-22" data-name="&amp;lt;Repetição de grade&amp;gt;">
          <path class="cls-2" d="m599.09,1198.19h470.77c0,259.83-210.94,470.77-470.77,470.77h0v-470.77h0Z" transform="translate(1668.96 2867.14) rotate(180)"/>
        </g>
        <g id="_Repetição_de_grade_-23" data-name="&amp;lt;Repetição de grade&amp;gt;">
          <path class="cls-2" d="m1198.19,1198.19h0c259.82,0,470.77,210.94,470.77,470.77h-470.77v-470.77h0Z" transform="translate(2867.14 2867.14) rotate(180)"/>
        </g>
        <g id="_Repetição_de_grade_-24" data-name="&amp;lt;Repetição de grade&amp;gt;">
          <path class="cls-2" d="m1797.28,1198.19h470.77c0,259.83-210.94,470.77-470.77,470.77h0v-470.77h0Z" transform="translate(4065.33 2867.14) rotate(180)"/>
        </g>
        <g id="_Repetição_de_grade_-25" data-name="&amp;lt;Repetição de grade&amp;gt;">
          <path class="cls-2" d="m2396.37,1198.19h0c259.82,0,470.77,210.94,470.77,470.77h-470.77v-470.77h0Z" transform="translate(5263.52 2867.14) rotate(180)"/>
        </g>
        <g id="_Repetição_de_grade_-26" data-name="&amp;lt;Repetição de grade&amp;gt;">
          <path class="cls-2" d="m2995.47,1198.19h470.77c0,259.83-210.94,470.77-470.77,470.77h0v-470.77h0Z" transform="translate(6461.7 2867.14) rotate(180)"/>
        </g>
        <g id="_Repetição_de_grade_-27" data-name="&amp;lt;Repetição de grade&amp;gt;">
          <path class="cls-2" d="m3594.56,1198.19h0c259.82,0,470.77,210.94,470.77,470.77h-470.77v-470.77h0Z" transform="translate(7659.89 2867.14) rotate(180)"/>
        </g>
        <g id="_Repetição_de_grade_-28" data-name="&amp;lt;Repetição de grade&amp;gt;">
          <path class="cls-2" d="m4193.65,1198.19h470.77c0,259.83-210.94,470.77-470.77,470.77h0v-470.77h0Z" transform="translate(8858.08 2867.14) rotate(180)"/>
        </g>
        <g id="_Repetição_de_grade_-29" data-name="&amp;lt;Repetição de grade&amp;gt;">
          <path class="cls-2" d="m4792.75,1198.19h0c259.82,0,470.77,210.94,470.77,470.77h-470.77v-470.77h0Z" transform="translate(10056.27 2867.14) rotate(180)"/>
        </g>
        <g id="_Repetição_de_grade_-30" data-name="&amp;lt;Repetição de grade&amp;gt;">
          <path class="cls-2" d="m5391.84,1198.19h470.77c0,259.83-210.94,470.77-470.77,470.77h0v-470.77h0Z" transform="translate(11254.45 2867.14) rotate(180)"/>
        </g>
        <g id="_Repetição_de_grade_-31" data-name="&amp;lt;Repetição de grade&amp;gt;">
          <path class="cls-2" d="m0,1797.28h470.77C470.77,2057.11,259.82,2268.05,0,2268.05h0v-470.77H0Z"/>
        </g>
        <g id="_Repetição_de_grade_-32" data-name="&amp;lt;Repetição de grade&amp;gt;">
          <path class="cls-2" d="m599.09,1797.28h0c259.82,0,470.77,210.94,470.77,470.77h-470.77v-470.77h0Z"/>
        </g>
        <g id="_Repetição_de_grade_-33" data-name="&amp;lt;Repetição de grade&amp;gt;">
          <path class="cls-2" d="m1198.19,1797.28h470.77c0,259.83-210.94,470.77-470.77,470.77h0v-470.77h0Z"/>
        </g>
        <g id="_Repetição_de_grade_-34" data-name="&amp;lt;Repetição de grade&amp;gt;">
          <path class="cls-2" d="m1797.28,1797.28h0c259.82,0,470.77,210.94,470.77,470.77h-470.77v-470.77h0Z"/>
        </g>
        <g id="_Repetição_de_grade_-35" data-name="&amp;lt;Repetição de grade&amp;gt;">
          <path class="cls-2" d="m2396.37,1797.28h470.77c0,259.83-210.94,470.77-470.77,470.77h0v-470.77h0Z"/>
        </g>
        <g id="_Repetição_de_grade_-36" data-name="&amp;lt;Repetição de grade&amp;gt;">
          <path class="cls-2" d="m2995.47,1797.28h0c259.82,0,470.77,210.94,470.77,470.77h-470.77v-470.77h0Z"/>
        </g>
        <g id="_Repetição_de_grade_-37" data-name="&amp;lt;Repetição de grade&amp;gt;">
          <path class="cls-2" d="m3594.56,1797.28h470.77c0,259.83-210.94,470.77-470.77,470.77h0v-470.77h0Z"/>
        </g>
        <g id="_Repetição_de_grade_-38" data-name="&amp;lt;Repetição de grade&amp;gt;">
          <path class="cls-2" d="m4193.65,1797.28h0c259.82,0,470.77,210.94,470.77,470.77h-470.77v-470.77h0Z"/>
        </g>
        <g id="_Repetição_de_grade_-39" data-name="&amp;lt;Repetição de grade&amp;gt;">
          <path class="cls-2" d="m4792.75,1797.28h470.77c0,259.83-210.94,470.77-470.77,470.77h0v-470.77h0Z"/>
        </g>
        <g id="_Repetição_de_grade_-40" data-name="&amp;lt;Repetição de grade&amp;gt;">
          <path class="cls-2" d="m5391.84,1797.28h0c259.82,0,470.77,210.94,470.77,470.77h-470.77v-470.77h0Z"/>
        </g>
        <g id="_Repetição_de_grade_-41" data-name="&amp;lt;Repetição de grade&amp;gt;">
          <path class="cls-2" d="m0,2396.37h0c259.82,0,470.77,210.94,470.77,470.77H0v-470.77H0Z" transform="translate(470.77 5263.52) rotate(180)"/>
        </g>
        <g id="_Repetição_de_grade_-42" data-name="&amp;lt;Repetição de grade&amp;gt;">
          <path class="cls-2" d="m599.09,2396.37h470.77c0,259.83-210.94,470.77-470.77,470.77h0v-470.77h0Z" transform="translate(1668.96 5263.52) rotate(180)"/>
        </g>
        <g id="_Repetição_de_grade_-43" data-name="&amp;lt;Repetição de grade&amp;gt;">
          <path class="cls-2" d="m1198.19,2396.37h0c259.82,0,470.77,210.94,470.77,470.77h-470.77v-470.77h0Z" transform="translate(2867.14 5263.52) rotate(180)"/>
        </g>
        <g id="_Repetição_de_grade_-44" data-name="&amp;lt;Repetição de grade&amp;gt;">
          <path class="cls-2" d="m1797.28,2396.37h470.77c0,259.83-210.94,470.77-470.77,470.77h0v-470.77h0Z" transform="translate(4065.33 5263.52) rotate(180)"/>
        </g>
        <g id="_Repetição_de_grade_-45" data-name="&amp;lt;Repetição de grade&amp;gt;">
          <path class="cls-2" d="m2396.37,2396.37h0c259.82,0,470.77,210.94,470.77,470.77h-470.77v-470.77h0Z" transform="translate(5263.52 5263.52) rotate(180)"/>
        </g>
        <g id="_Repetição_de_grade_-46" data-name="&amp;lt;Repetição de grade&amp;gt;">
          <path class="cls-2" d="m2995.47,2396.37h470.77c0,259.83-210.94,470.77-470.77,470.77h0v-470.77h0Z" transform="translate(6461.7 5263.52) rotate(180)"/>
        </g>
        <g id="_Repetição_de_grade_-47" data-name="&amp;lt;Repetição de grade&amp;gt;">
          <path class="cls-2" d="m3594.56,2396.37h0c259.82,0,470.77,210.94,470.77,470.77h-470.77v-470.77h0Z" transform="translate(7659.89 5263.52) rotate(180)"/>
        </g>
        <g id="_Repetição_de_grade_-48" data-name="&amp;lt;Repetição de grade&amp;gt;">
          <path class="cls-2" d="m4193.65,2396.37h470.77c0,259.83-210.94,470.77-470.77,470.77h0v-470.77h0Z" transform="translate(8858.08 5263.52) rotate(180)"/>
        </g>
        <g id="_Repetição_de_grade_-49" data-name="&amp;lt;Repetição de grade&amp;gt;">
          <path class="cls-2" d="m4792.75,2396.37h0c259.82,0,470.77,210.94,470.77,470.77h-470.77v-470.77h0Z" transform="translate(10056.27 5263.52) rotate(180)"/>
        </g>
        <g id="_Repetição_de_grade_-50" data-name="&amp;lt;Repetição de grade&amp;gt;">
          <path class="cls-2" d="m5391.84,2396.37h470.77c0,259.83-210.94,470.77-470.77,470.77h0v-470.77h0Z" transform="translate(11254.45 5263.52) rotate(180)"/>
        </g>
        <g id="_Repetição_de_grade_-51" data-name="&amp;lt;Repetição de grade&amp;gt;">
          <path class="cls-2" d="m0,2995.47h470.77C470.77,3255.29,259.82,3466.24,0,3466.24h0v-470.77H0Z"/>
        </g>
        <g id="_Repetição_de_grade_-52" data-name="&amp;lt;Repetição de grade&amp;gt;">
          <path class="cls-2" d="m599.09,2995.47h0c259.82,0,470.77,210.94,470.77,470.77h-470.77v-470.77h0Z"/>
        </g>
        <g id="_Repetição_de_grade_-53" data-name="&amp;lt;Repetição de grade&amp;gt;">
          <path class="cls-2" d="m1198.19,2995.47h470.77c0,259.83-210.94,470.77-470.77,470.77h0v-470.77h0Z"/>
        </g>
        <g id="_Repetição_de_grade_-54" data-name="&amp;lt;Repetição de grade&amp;gt;">
          <path class="cls-2" d="m1797.28,2995.47h0c259.82,0,470.77,210.94,470.77,470.77h-470.77v-470.77h0Z"/>
        </g>
        <g id="_Repetição_de_grade_-55" data-name="&amp;lt;Repetição de grade&amp;gt;">
          <path class="cls-2" d="m2396.37,2995.47h470.77c0,259.83-210.94,470.77-470.77,470.77h0v-470.77h0Z"/>
        </g>
        <g id="_Repetição_de_grade_-56" data-name="&amp;lt;Repetição de grade&amp;gt;">
          <path class="cls-2" d="m2995.47,2995.47h0c259.82,0,470.77,210.94,470.77,470.77h-470.77v-470.77h0Z"/>
        </g>
        <g id="_Repetição_de_grade_-57" data-name="&amp;lt;Repetição de grade&amp;gt;">
          <path class="cls-2" d="m3594.56,2995.47h470.77c0,259.83-210.94,470.77-470.77,470.77h0v-470.77h0Z"/>
        </g>
        <g id="_Repetição_de_grade_-58" data-name="&amp;lt;Repetição de grade&amp;gt;">
          <path class="cls-2" d="m4193.65,2995.47h0c259.82,0,470.77,210.94,470.77,470.77h-470.77v-470.77h0Z"/>
        </g>
        <g id="_Repetição_de_grade_-59" data-name="&amp;lt;Repetição de grade&amp;gt;">
          <path class="cls-2" d="m4792.75,2995.47h470.77c0,259.83-210.94,470.77-470.77,470.77h0v-470.77h0Z"/>
        </g>
        <g id="_Repetição_de_grade_-60" data-name="&amp;lt;Repetição de grade&amp;gt;">
          <path class="cls-2" d="m5391.84,2995.47h0c259.82,0,470.77,210.94,470.77,470.77h-470.77v-470.77h0Z"/>
        </g>
      </g>
    </g>
  </g>
</svg>